<svg xmlns="http://www.w3.org/2000/svg" width="30" height="30" viewBox="0 0 30 30">
  <g id="nav-icon-site-settings" transform="translate(-487.749 -246.5)">
    <rect id="Rectangle_5024" data-name="Rectangle 5024" width="30" height="30" transform="translate(487.749 246.5)" fill="rgba(255,255,255,0)" opacity="0"/>
    <path id="Path_4122" data-name="Path 4122" d="M140.749,9.688a4.3,4.3,0,1,0,4.3,4.3A4.3,4.3,0,0,0,140.749,9.688Zm12.06,1.231-1.163.958a2.731,2.731,0,0,0,0,4.217l1.163.957a1.093,1.093,0,0,1,.252,1.39l-2.3,3.979a1.093,1.093,0,0,1-1.33.476l-1.411-.528a2.731,2.731,0,0,0-3.652,2.108l-.247,1.486a1.093,1.093,0,0,1-1.078.913h-4.594a1.093,1.093,0,0,1-1.078-.913l-.247-1.486a2.731,2.731,0,0,0-3.652-2.108l-1.411.528a1.093,1.093,0,0,1-1.33-.476l-2.3-3.979a1.093,1.093,0,0,1,.252-1.39l1.163-.957a2.731,2.731,0,0,0,0-4.217l-1.163-.958a1.093,1.093,0,0,1-.252-1.39l2.3-3.978a1.093,1.093,0,0,1,1.33-.477l1.411.529a2.731,2.731,0,0,0,3.652-2.109l.247-1.486a1.093,1.093,0,0,1,1.078-.913h4.594a1.093,1.093,0,0,1,1.078.913l.247,1.486A2.731,2.731,0,0,0,148.023,5.6l1.411-.529a1.093,1.093,0,0,1,1.33.477l2.3,3.978A1.093,1.093,0,0,1,152.809,10.919Z" transform="translate(362 247.404)" fill="rgba(255,255,255,0)" stroke="#1e245c" stroke-miterlimit="10" stroke-width="1.75"/>
  </g>
</svg>
