<svg xmlns="http://www.w3.org/2000/svg" viewBox="0 0 26 26"><path d="M0 0h26v26H0z" style="fill:none;stroke-width:0"/><path d="M12.97 21.52c-3.33-.04-6.46-1.57-8.54-4.17a14.254 14.254 0 0 1-2.37-4.03.857.857 0 0 1 0-.63c.56-1.47 1.36-2.83 2.37-4.03C8.11 3.94 14.92 3.1 19.64 6.79c.7.55 1.33 1.18 1.87 1.87 1.01 1.21 1.81 2.57 2.37 4.03.08.2.08.43 0 .63-.56 1.47-1.36 2.83-2.37 4.03a11.15 11.15 0 0 1-8.54 4.17M3.81 13a12.37 12.37 0 0 0 1.95 3.23c3.06 3.98 8.78 4.73 12.76 1.67.63-.48 1.19-1.04 1.67-1.67.81-.97 1.47-2.06 1.95-3.23a12.37 12.37 0 0 0-1.95-3.23C17.13 5.79 11.41 5.04 7.43 8.1c-.63.48-1.19 1.04-1.67 1.67-.81.97-1.47 2.06-1.95 3.23" style="fill:#fff;stroke-width:0"/><path d="M12.98 17.88c-2.69 0-4.87-2.18-4.87-4.88 0-2.69 2.18-4.87 4.88-4.87 2.69 0 4.87 2.18 4.87 4.88 0 2.69-2.18 4.87-4.88 4.87m0-8.01c-1.73 0-3.14 1.4-3.14 3.14 0 1.73 1.4 3.14 3.14 3.14a3.139 3.139 0 1 0 0-6.28" style="fill:#fff;stroke-width:0"/></svg>