<svg xmlns="http://www.w3.org/2000/svg" viewBox="0 0 26 26"><path d="M0 0h26v26H0z" style="fill:none;stroke-width:0"/><path d="M14.87 24.35h-3.73c-.86 0-1.59-.62-1.73-1.47l-.2-1.21c-.12-.74-.82-1.23-1.55-1.11-.09.01-.17.04-.25.07l-1.15.43c-.8.3-1.71-.02-2.14-.77l-1.87-3.24c-.43-.74-.26-1.69.4-2.23l.95-.78a1.34 1.34 0 0 0 0-2.08l-.95-.78c-.66-.55-.83-1.49-.4-2.23l1.87-3.23c.43-.75 1.34-1.07 2.14-.76l1.15.43c.7.26 1.48-.09 1.74-.79.03-.08.05-.16.07-.25l.2-1.21c.14-.85.87-1.47 1.73-1.47h3.73c.86 0 1.59.62 1.73 1.47l.2 1.21c.12.74.82 1.23 1.56 1.11.09-.01.17-.04.25-.07l1.15-.43c.8-.3 1.71.02 2.14.77l1.87 3.23c.43.74.26 1.69-.4 2.23l-.95.78a1.34 1.34 0 0 0 0 2.08l.95.78c.66.55.83 1.49.4 2.23l-1.87 3.24c-.43.75-1.33 1.07-2.14.77l-1.15-.43c-.7-.26-1.48.09-1.74.79-.03.08-.05.17-.07.25l-.2 1.21c-.14.85-.87 1.48-1.73 1.47m-7-5.55c1.51 0 2.8 1.09 3.05 2.58l.2 1.21 3.75.02.22-1.22a3.089 3.089 0 0 1 3.55-2.54c.2.03.39.08.58.15l1.15.43 1.89-3.24-.95-.8a3.084 3.084 0 0 1-.42-4.35c.13-.15.27-.29.42-.42l.95-.78v-.02L20.4 6.6l-1.17.42c-1.6.6-3.38-.21-3.97-1.81-.07-.19-.12-.38-.16-.58l-.2-1.21-3.75-.02-.22 1.22a3.089 3.089 0 0 1-3.55 2.54c-.2-.03-.39-.08-.58-.16l-1.15-.43-1.88 3.24.95.8c1.32 1.09 1.5 3.03.42 4.35-.13.15-.27.29-.42.42l-.95.78 1.86 3.26L6.8 19c.35-.13.71-.2 1.08-.2m5.14-1.44c-2.41 0-4.36-1.95-4.36-4.36s1.95-4.36 4.36-4.36 4.36 1.95 4.36 4.36-1.95 4.36-4.36 4.36m0-6.99c-1.45 0-2.62 1.18-2.62 2.62 0 1.45 1.18 2.62 2.62 2.62 1.45 0 2.62-1.17 2.62-2.62 0-1.45-1.18-2.62-2.62-2.62" style="fill:#fff;stroke-width:0"/></svg>