<svg xmlns="http://www.w3.org/2000/svg" viewBox="0 0 26 26"><path d="M0 0h26v26H0z" style="fill:none;stroke-width:0"/><path d="m23.3 4.65-1.68-1.67a.876.876 0 0 0-1.18-.05L9.19 12.52l-.03.03s-.02.01-.02.02c-.02.02-.02.04-.04.06-.03.03-.07.07-.09.11l-1.05 1.74c-2.21.15-4.07 1.7-4.62 3.85-.03.06-.04.13-.05.2-.24 1.1-.33 2.22-.27 3.34v.52c0 .48.4.87.88.87h.48c.18 0 .38.01.6.01.94.01 1.87-.09 2.78-.31.1 0 .19-.03.28-.07 2.1-.57 3.61-2.41 3.77-4.58l1.74-1.04s.07-.06.11-.09c.02-.02.04-.02.06-.04 0 0 .01-.02.02-.02 0-.01.02-.02.03-.03l9.58-11.27c.29-.35.27-.86-.05-1.18M11.14 16.69l-.78-.78-.78-.78.34-.56 1.78 1.78-.56.33Zm-6.4 4.84c-.02-.74.03-1.47.15-2.2.6-.17 1.24-.06 1.74.32.37.49.49 1.12.33 1.71-.73.12-1.47.18-2.21.17m3.97-.88a2.956 2.956 0 0 0-2.82-3.1h-.3c.63-.8 1.57-1.3 2.59-1.38l1.92 1.92a3.616 3.616 0 0 1-1.38 2.56m4.34-5.41-2.02-2.02 9.93-8.46.54.54-8.45 9.94Z" style="fill:#fff;stroke-width:0"/></svg>