<svg xmlns="http://www.w3.org/2000/svg" viewBox="0 0 26 26"><path d="M0 0h26v26H0z" style="fill:none;stroke-width:0"/><path d="M18.07 12.13h-4.21V7.92a.87.87 0 0 0-1.74 0v4.21H7.85a.871.871 0 0 0 .06 1.74h4.21v4.21a.87.87 0 0 0 1.74 0v-4.21h4.27a.871.871 0 0 0-.06-1.74Z" style="fill:#fff;stroke-width:0"/><path d="M12.99 2.01C6.92 2.01 2 6.93 2 13s4.92 10.99 10.99 10.99S23.98 19.07 23.98 13 19.06 2.01 12.99 2.01Zm0 20.25c-5.11 0-9.25-4.14-9.26-9.25 0-5.11 4.14-9.25 9.25-9.26 5.11 0 9.25 4.15 9.25 9.26 0 5.11-4.14 9.25-9.25 9.25Z" style="fill:#fff;stroke-width:0"/></svg>