<svg xmlns="http://www.w3.org/2000/svg" viewBox="0 0 26 26"><path d="M0 0h26v26H0z" style="fill:none;stroke-width:0"/><path d="M23.41 13c-.04-.7-.49-1.32-1.15-1.58l-1.23-.62 1.23-.62c.66-.26 1.1-.88 1.14-1.58-.04-.7-.49-1.32-1.14-1.58l-7.57-3.78a4.869 4.869 0 0 0-3.99 0L3.13 7.02c-.66.26-1.1.88-1.14 1.58.04.7.49 1.32 1.14 1.58l1.23.62-1.23.62c-.66.26-1.1.88-1.14 1.58.04.7.49 1.32 1.14 1.58l1.23.62-1.23.62c-.66.26-1.1.88-1.14 1.58.04.7.49 1.32 1.14 1.58l7.57 3.78c1.27.57 2.72.57 3.99 0l7.57-3.79c.66-.26 1.1-.88 1.14-1.58-.04-.7-.49-1.32-1.14-1.58l-1.23-.62 1.23-.62c.66-.26 1.1-.88 1.14-1.58M3.87 8.6l.05-.03 7.57-3.78a3.22 3.22 0 0 1 2.44 0l7.57 3.78.05.03s-.03.02-.05.03l-7.57 3.78c-.78.32-1.66.32-2.44 0L3.92 8.63s-.04-.02-.05-.03m17.62 8.76s.04.02.05.03l-.05.03-7.57 3.79c-.78.32-1.66.32-2.44 0l-7.57-3.78-.05-.03s.03-.02.05-.03l2.4-1.2 4.39 2.2c1.27.57 2.72.57 3.99 0l4.39-2.2 2.4 1.2Zm0-4.34-7.57 3.78c-.78.32-1.66.32-2.44 0l-7.57-3.78s-.04-.02-.05-.03c.01 0 .03-.02.05-.03l2.4-1.2 4.39 2.2c1.27.57 2.72.57 3.99 0l4.39-2.2 2.4 1.2s.04.02.05.03c-.01 0-.03.02-.05.03" style="fill:#fff;stroke-width:0"/></svg>