<svg xmlns="http://www.w3.org/2000/svg" viewBox="0 0 26 26"><path d="M0 0h26v26H0z" style="fill:none;stroke-width:0"/><path d="M17.19 11.58a.833.833 0 0 0-1.17 0c-.32.32-.32.85 0 1.17l1.94 1.94-1.94 1.94c-.32.33-.31.86.03 1.17.32.31.83.31 1.15 0l2.53-2.53c.32-.32.33-.85 0-1.17l-2.53-2.53ZM14.23 9.75a.842.842 0 0 0-1.01.6l-2.07 8.27c-.11.44.16.89.6 1.01.07.02.13.03.2.02.38 0 .71-.26.81-.63l2.07-8.27a.842.842 0 0 0-.6-1.01" style="fill:#fff;stroke-width:0"/><path d="M20.35 3.38H5.65c-1.7 0-3.08 1.38-3.09 3.09v13.07c0 1.7 1.38 3.08 3.09 3.09h14.7c1.7 0 3.08-1.38 3.09-3.09V6.47c0-1.7-1.38-3.08-3.09-3.09M5.65 5.04h14.7c.79 0 1.43.64 1.43 1.43v.54H4.22v-.54c0-.79.64-1.43 1.43-1.43m14.7 15.92H5.65c-.79 0-1.43-.64-1.43-1.43V8.66h17.56v10.87c0 .79-.64 1.43-1.43 1.43" style="fill:#fff;stroke-width:0"/><path d="M9.99 11.58a.833.833 0 0 0-1.17 0l-2.53 2.53c-.32.32-.33.85 0 1.17l2.53 2.53c.33.32.86.3 1.17-.03.31-.32.31-.83 0-1.15l-1.94-1.94 1.94-1.94c.32-.32.32-.85 0-1.17" style="fill:#fff;stroke-width:0"/></svg>