<svg xmlns="http://www.w3.org/2000/svg" viewBox="0 0 26 26"><path d="M0 0h26v26H0z" style="fill:none;stroke-width:0"/><path d="M19.63 4.82h-6.46c-.46 0-.84.38-.84.84s.38.84.84.84h6.47c1.37 0 2.47 1.11 2.48 2.48v9.11c0 1.37-1.11 2.47-2.48 2.48H6.7c-1.37 0-2.47-1.11-2.47-2.48v-.12a.78.78 0 0 0-.8-.78h-.04c-.48.03-.85.42-.84.9 0 2.29 1.86 4.15 4.16 4.16h12.93c2.29 0 4.15-1.86 4.16-4.16V8.98c0-2.29-1.86-4.15-4.16-4.15" style="fill:#fff;stroke-width:0"/><path d="M11.74 9.37v3.36c0 .46.38.84.84.84s.84-.38.84-.84V11.4l4.18 4.18h-1.31c-.46 0-.84.38-.84.84s.38.84.84.84h3.34a.827.827 0 0 0 .77-.51c.04-.1.07-.21.07-.32v-3.34c0-.46-.38-.84-.84-.84-.46 0-.84.38-.84.84v1.31l-4.18-4.18h1.33c.46 0 .84-.38.84-.84s-.38-.84-.84-.84h-3.36c-.46 0-.84.38-.84.84M4.5 15.22h3.15a2.5 2.5 0 0 0 2.5-2.5V6.26a2.5 2.5 0 0 0-2.5-2.5H4.5A2.5 2.5 0 0 0 2 6.26v6.46a2.5 2.5 0 0 0 2.5 2.5m-.82-8.96c0-.45.36-.82.82-.82h3.15c.45 0 .82.37.82.82v6.47c0 .45-.37.82-.82.82H4.5c-.45 0-.82-.37-.82-.82V6.27Z" style="fill:#fff;stroke-width:0"/></svg>