<svg xmlns="http://www.w3.org/2000/svg" viewBox="0 0 26 26"><path d="M0 0h26v26H0z" style="fill:none;stroke-width:0"/><path d="M4.87 10.75A.87.87 0 0 1 4 9.88V4.69c0-.48.39-.87.87-.87h5.19a.87.87 0 0 1 0 1.74H5.74v4.32c0 .48-.39.87-.87.87M21.48 10.75a.87.87 0 0 1-.87-.87V5.56h-4.32a.87.87 0 0 1 0-1.74h5.19c.48 0 .87.39.87.87v5.19c0 .48-.39.87-.87.87M10.06 22.18H4.87a.87.87 0 0 1-.87-.87v-5.19a.871.871 0 0 1 1.74-.06v4.38h4.32a.871.871 0 0 1 .06 1.74h-.06M21.48 22.18h-5.19a.871.871 0 0 1-.06-1.74h4.38v-4.32a.87.87 0 0 1 1.74 0v5.19c0 .48-.39.87-.87.87" style="fill:#fff;stroke-width:0"/></svg>