<svg xmlns="http://www.w3.org/2000/svg" viewBox="0 0 26 26"><path d="M0 0h26v26H0z" style="fill:none;stroke-width:0"/><path d="M6.98 16.97c-.23 0-.45-.09-.61-.26L3.26 13.6a.857.857 0 0 1 0-1.22l3.11-3.11A.87.87 0 1 1 7.6 10.5l-2.49 2.49 2.5 2.49c.34.34.34.89 0 1.23-.16.16-.38.25-.61.25M11.64 20.08c-.07 0-.14 0-.21-.03a.867.867 0 0 1-.63-1.06l3.11-12.44c.12-.46.6-.74 1.06-.62.45.12.73.58.62 1.04l-3.11 12.44c-.1.39-.44.66-.84.66M19.42 16.97a.87.87 0 0 1-.62-1.48L21.3 13l-2.5-2.49a.87.87 0 0 1 .04-1.23c.33-.32.86-.32 1.19 0l3.11 3.11c.34.34.34.89 0 1.22l-3.11 3.11c-.16.16-.38.26-.61.26" style="fill:#fff;stroke-width:0"/></svg>