<svg xmlns="http://www.w3.org/2000/svg" viewBox="0 0 26 26"><path d="M0 0h26v26H0z" style="fill:none;stroke-width:0"/><path d="M16.98 23.78a.87.87 0 0 1 0-1.74h2.44c.48 0 .88.38.89.87 0 .47-.36.86-.83.87H16.99Zm-3.66 0h-2.44a.87.87 0 0 1 0-1.74h2.44a.87.87 0 0 1 0 1.74m-6.1 0h-.65c-.75 0-1.5-.2-2.15-.57a.88.88 0 0 1-.33-1.19.88.88 0 0 1 1.19-.33c.39.22.84.34 1.29.34h.65a.87.87 0 0 1 0 1.74m15.26-1.79a.87.87 0 0 1-.76-1.29c.22-.39.33-.82.33-1.27v-.67a.87.87 0 0 1 1.74 0v.67c0 .74-.19 1.47-.55 2.12-.15.27-.44.44-.76.44M3.09 20.29c-.46 0-.84-.36-.87-.82v-2.49a.87.87 0 0 1 1.74 0v2.44c0 .48-.39.87-.87.87m19.82-4.35a.87.87 0 0 1-.87-.87v-2.44a.87.87 0 0 1 1.74 0v2.44c0 .48-.39.87-.87.87M3.09 14.18a.87.87 0 0 1-.87-.87v-2.44a.87.87 0 0 1 1.74 0v2.44c0 .48-.39.87-.87.87m19.82-4.34a.87.87 0 0 1-.87-.87V6.55c0-.48.39-.88.87-.88.47 0 .86.37.87.84v2.44c0 .48-.39.87-.87.87M3.09 8.06a.87.87 0 0 1-.87-.87v-.66c0-.75.19-1.48.56-2.14.22-.43.75-.59 1.18-.36.43.22.59.75.36 1.18 0 .02-.02.03-.03.04-.22.39-.34.83-.34 1.28v.66c0 .48-.39.87-.87.87m18.04-3.69c-.15 0-.3-.04-.42-.11-.39-.22-.83-.33-1.28-.34h-.66a.87.87 0 0 1 0-1.74h.66c.74 0 1.48.19 2.13.55a.87.87 0 0 1-.42 1.63m-6.03-.44h-2.44a.87.87 0 0 1 0-1.74h2.44a.87.87 0 0 1 0 1.74m-6.11 0H6.57c-.48 0-.87-.39-.88-.87 0-.49.41-.88.9-.87h2.4a.87.87 0 0 1 0 1.74" style="fill:#fff;stroke-width:0"/></svg>