<svg xmlns="http://www.w3.org/2000/svg" width="28.231" height="21.071" viewBox="0 0 28.231 21.071">
  <g id="Group_5278" data-name="Group 5278" transform="translate(-5974.351 2391.642)">
    <path id="Path_4056" data-name="Path 4056" d="M20.584,11.231l.047-.008c.077-.012.155-.025.23-.039a6.951,6.951,0,0,0,4.485-2.733,9.821,9.821,0,0,0,1.417-2.724,14.311,14.311,0,0,0,.646-2.733,14.876,14.876,0,0,0,.151-2,.2.2,0,0,0-.052-.146A2.316,2.316,0,0,0,26.139.049,2.842,2.842,0,0,0,25.61,0a3.635,3.635,0,0,0-1.19.218c-.113.038-.227.083-.335.13l-.02.008-.011.005-.18.074a.49.49,0,0,1-.154.031l-.576,0h-.066c-.409,0-.83.006-1.245.022C21.26.515,20.662.556,19.9.623S18.365.776,17.57.87c-.466.051-.942.117-1.429.184l-.2.027-.2.028h-.059a.928.928,0,0,1-.213-.032.947.947,0,0,0-.1-.023A10.01,10.01,0,0,0,13.453.846a4.673,4.673,0,0,0-1.829.311,2.285,2.285,0,0,0-.952.669c-.177.217-.183.225-.105.492a17.138,17.138,0,0,0,2.258,5.012,10.2,10.2,0,0,0,2.312,2.509,7.228,7.228,0,0,0,2.362,1.2l.023.008.028.01a.053.053,0,0,0,0,.017,13.869,13.869,0,0,0-2.388.286,1.247,1.247,0,0,1-.011.124c0,.041-.01.1-.012.152,0,.084-.008.163-.011.244-.006.148-.013.318-.023.482a.106.106,0,0,1-.031.072,9.892,9.892,0,0,0-1.422,1.26A13.573,13.573,0,0,0,12.388,15.2a5.771,5.771,0,0,0-.88,1.956,11.253,11.253,0,0,0-.386,2.481,3.509,3.509,0,0,0,.077,1.035.976.976,0,0,0,.111.268.24.24,0,0,0,.209.129.258.258,0,0,0,.158-.061,1.99,1.99,0,0,0,.315-.314,10.1,10.1,0,0,0,.865-1.327,40.416,40.416,0,0,0,2.286-4.675q.013-.03.029-.06h.016c0,.037.01.074.014.11v.01c.011.095.026.2.047.306a7.423,7.423,0,0,0,.845,2.437,4.416,4.416,0,0,0,.883,1.043,1.1,1.1,0,0,0,.689.309.754.754,0,0,1,.2.048h.008c.041.014.082.026.123.037a2.379,2.379,0,0,0,.509.055,2.933,2.933,0,0,0,1.106-.238,5.188,5.188,0,0,0,1.643-1.124,13.034,13.034,0,0,0,1.9-2.368l.016-.022A.385.385,0,0,0,23.2,15.2l.075.149.027.054.168.329a37.819,37.819,0,0,0,2.481,4.182,6.894,6.894,0,0,0,.723.912,1.236,1.236,0,0,0,.212.18.307.307,0,0,0,.172.062.257.257,0,0,0,.227-.176,1.368,1.368,0,0,0,.1-.523,5.43,5.43,0,0,0-.064-1.029,11.184,11.184,0,0,0-.586-2.315,5.066,5.066,0,0,0-.7-1.338,12.458,12.458,0,0,0-1.892-1.961c-.045-.041-.05-.065-.02-.114.04-.077.079-.152.117-.227s.073-.143.11-.215c.02-.034.008-.048-.014-.071a5.173,5.173,0,0,0-1.326-.969,8.517,8.517,0,0,0-2.409-.836c-.027-.007-.056-.013-.083-.017l-.071-.015v-.007Z" transform="translate(5975.021 -2391.641)" fill="#515962"/>
    <path id="Path_4057" data-name="Path 4057" d="M6.208,20.039,4.461,15.76,0,14.468l4.461-2.213L6.208,7.611l1.758,4.278,4.462,1.28L7.966,15.393Z" transform="translate(5974.351 -2393.438)" fill="#515962"/>
  </g>
</svg>
