<svg xmlns="http://www.w3.org/2000/svg" viewBox="0 0 44.5 44.5"><path d="M0 0h44.5v44.5H0z" style="fill:none;stroke-width:0"/><path d="M35.34 39.86H9.16a5.727 5.727 0 0 1-5.5-4.17c-.42-1.47-.23-3.01.52-4.34L17.26 7.56a5.69 5.69 0 0 1 2.19-2.19 5.67 5.67 0 0 1 4.34-.52c1.47.41 2.69 1.37 3.44 2.7l13.09 23.81c.47.84.73 1.81.73 2.79 0 3.15-2.56 5.71-5.71 5.71Zm-26.18-2.5h26.18a3.214 3.214 0 0 0 2.8-4.78L25.05 8.77c-.41-.74-1.1-1.28-1.93-1.51-.83-.23-1.69-.13-2.44.29-.51.29-.94.71-1.23 1.23L6.37 32.57a3.19 3.19 0 0 0-.3 2.45c.23.83.77 1.51 1.52 1.93.48.27 1.02.41 1.57.41Z" style="fill:#515962;stroke-width:0"/><path d="M22.25 26.47c-.69 0-1.25-.56-1.25-1.25V16.3a1.25 1.25 0 0 1 2.5 0v8.92c0 .69-.56 1.25-1.25 1.25ZM22.25 33.91c-.73 0-1.42-.28-1.94-.8s-.8-1.2-.8-1.94c0-.73.28-1.42.8-1.94s1.2-.8 1.94-.8c1.51 0 2.74 1.23 2.74 2.74 0 .73-.28 1.42-.8 1.94s-1.2.8-1.93.8Zm0-2.98c-.08 0-.14.04-.17.07-.03.03-.07.09-.07.17s.04.14.07.17c.03.03.09.07.17.07.08 0 .14-.04.17-.07s.07-.09.07-.17c0-.13-.11-.24-.24-.24Zm2.74.24Z" style="fill:#8bcfb0;stroke-width:0"/></svg>