<svg xmlns="http://www.w3.org/2000/svg" viewBox="0 0 44.5 44.5"><path d="M0 0h44.5v44.5H0z" style="fill:none;stroke-width:0"/><path d="M37.97 11.97H18.05a1.25 1.25 0 0 1 0-2.5h19.92a1.25 1.25 0 0 1 0 2.5ZM37.97 23.5H18.05a1.25 1.25 0 0 1 0-2.5h19.92a1.25 1.25 0 0 1 0 2.5ZM37.97 35.03H18.05a1.25 1.25 0 0 1 0-2.5h19.92a1.25 1.25 0 0 1 0 2.5ZM9.67 15.11c-2.42 0-4.39-1.97-4.39-4.39s1.97-4.4 4.4-4.4c1.17 0 2.28.46 3.11 1.29.83.83 1.29 1.93 1.29 3.11 0 1.17-.46 2.28-1.29 3.11-.83.83-1.93 1.29-3.11 1.29Zm0-6.29c-1.04 0-1.9.85-1.9 1.9 0 1.04.85 1.89 1.89 1.89.51 0 .98-.2 1.34-.55s.55-.83.55-1.34-.2-.98-.55-1.34c-.36-.36-.83-.56-1.34-.56ZM9.67 26.65a4.41 4.41 0 0 1-4.4-4.39c0-2.42 1.97-4.4 4.39-4.4s4.39 1.97 4.39 4.4-1.97 4.4-4.39 4.4Zm0-6.29c-1.04 0-1.89.85-1.89 1.9 0 1.04.85 1.89 1.9 1.89s1.89-.85 1.89-1.9-.85-1.9-1.89-1.9ZM9.67 38.18c-2.42 0-4.4-1.97-4.4-4.4s1.97-4.4 4.4-4.4 4.39 1.97 4.39 4.4-1.97 4.4-4.39 4.4Zm0-6.29a1.9 1.9 0 1 0 0 3.8c1.05 0 1.89-.85 1.89-1.9s-.85-1.9-1.89-1.9Z" style="fill:#515962;stroke-width:0"/></svg>