<svg xmlns="http://www.w3.org/2000/svg" viewBox="0 0 44.5 44.5"><path d="M0 0h44.5v44.5H0z" style="fill:none;stroke-width:0"/><path d="M37.97 11.69H15.66a1.25 1.25 0 0 1 0-2.5h22.31a1.25 1.25 0 0 1 0 2.5ZM37.97 23.5H15.66a1.25 1.25 0 0 1 0-2.5h22.31a1.25 1.25 0 0 1 0 2.5ZM37.97 35.31H15.66a1.25 1.25 0 0 1 0-2.5h22.31a1.25 1.25 0 0 1 0 2.5ZM8.78 14.95c-.69 0-1.25-.56-1.25-1.25V7.77h-.28a1.25 1.25 0 0 1 0-2.5h1.53c.69 0 1.25.56 1.25 1.25v7.18c0 .69-.56 1.25-1.25 1.25ZM8.11 27.09c-1.42 0-1.54-.04-1.7-.09-.38-.13-.71-.46-.83-.84-.2-.66.12-1.09.58-1.69.35-.47 1.01-1.33 2.12-2.92.26-.34.43-.69.55-1.07v-.08c0-.17-.09-.28-.14-.34a.547.547 0 0 0-.39-.16c-.25 0-.5.19-.55.45a1.25 1.25 0 0 1-1.46 1c-.68-.13-1.12-.78-1-1.46.27-1.45 1.56-2.46 3.03-2.49 1.68.02 3.04 1.4 3.02 3.08 0 .05 0 .1-.01.15l-.04.27c0 .06-.02.11-.03.17a5.73 5.73 0 0 1-.96 1.95c-.44.62-.81 1.14-1.12 1.57.39 0 .8 0 1.19-.01.67 0 1.26.54 1.27 1.23 0 .69-.54 1.26-1.23 1.27-1.01.01-1.75.02-2.29.02ZM8.46 35.63a1.25 1.25 0 0 1 0-2.5c.26 0 .48-.18.53-.44a.544.544 0 0 0-.43-.64.528.528 0 0 0-.41.08c-.07.05-.19.15-.23.35-.13.68-.79 1.12-1.47.98-.68-.13-1.12-.79-.98-1.47a3.056 3.056 0 0 1 3.58-2.4c1.65.33 2.72 1.93 2.4 3.58a3.052 3.052 0 0 1-2.99 2.45Z" style="fill:#515962;stroke-width:0"/><path d="M8.46 39.22a3.055 3.055 0 0 1-3.04-3.04 1.25 1.25 0 0 1 2.5 0c.04.34.27.54.54.54.3 0 .54-.24.54-.54s-.24-.54-.54-.54a1.25 1.25 0 0 1 0-2.5 3.045 3.045 0 0 1 0 6.09Z" style="fill:#515962;stroke-width:0"/></svg>