<svg xmlns="http://www.w3.org/2000/svg" viewBox="0 0 44.5 44.5"><path d="M0 0h44.5v44.5H0z" style="fill:none;stroke-width:0"/><path d="M39.24 10.54H5.26a1.25 1.25 0 0 1 0-2.5h33.99a1.25 1.25 0 0 1 0 2.5ZM28.6 17.02H5.26a1.25 1.25 0 0 1 0-2.5H28.6a1.25 1.25 0 0 1 0 2.5ZM39.24 23.5H5.26a1.25 1.25 0 0 1 0-2.5h33.99a1.25 1.25 0 0 1 0 2.5ZM28.6 29.98H5.26a1.25 1.25 0 0 1 0-2.5H28.6a1.25 1.25 0 0 1 0 2.5ZM39.24 36.45H5.26a1.25 1.25 0 0 1 0-2.5h33.99a1.25 1.25 0 0 1 0 2.5Z" style="fill:#515962;stroke-width:0"/></svg>