<svg xmlns="http://www.w3.org/2000/svg" viewBox="0 0 44.5 44.5"><path d="M0 0h44.5v44.5H0z" style="fill:none;stroke-width:0"/><path d="M37.96 34.08H27.63c-1.81 0-3.28-1.47-3.28-3.28V13.7c0-1.81 1.47-3.28 3.28-3.28h10.33c1.81 0 3.28 1.47 3.28 3.28v17.1c0 1.81-1.47 3.28-3.28 3.28ZM27.63 12.92c-.43 0-.78.35-.78.78v17.1c0 .43.35.78.78.78h10.33c.43 0 .78-.35.78-.78V13.7c0-.43-.35-.78-.78-.78H27.63ZM13.49 18.3H6.05c-1.54 0-2.79-1.25-2.79-2.79v-1.73c0-1.54 1.25-2.79 2.79-2.79h7.44c1.54 0 2.79 1.25 2.79 2.79v1.73c0 1.54-1.25 2.79-2.79 2.79Zm-7.44-4.81a.29.29 0 0 0-.29.29v1.73c0 .16.13.29.29.29h7.44c.16 0 .29-.13.29-.29v-1.73a.29.29 0 0 0-.29-.29H6.05ZM9.38 34.08H6.05c-1.54 0-2.79-1.25-2.79-2.79v-.52c0-1.54 1.25-2.79 2.79-2.79h3.33c1.54 0 2.79 1.25 2.79 2.79v.52c0 1.54-1.25 2.79-2.79 2.79Zm-3.33-3.61a.29.29 0 0 0-.29.29v.52c0 .16.13.29.29.29h3.33c.16 0 .29-.13.29-.29v-.52a.29.29 0 0 0-.29-.29H6.05ZM19.01 34.08h-3.33c-1.54 0-2.79-1.25-2.79-2.79v-.52c0-1.54 1.25-2.79 2.79-2.79h3.33c1.54 0 2.79 1.25 2.79 2.79v.52c0 1.54-1.25 2.79-2.79 2.79Zm-3.33-3.61a.29.29 0 0 0-.29.29v.52c0 .16.13.29.29.29h3.33c.16 0 .29-.13.29-.29v-.52a.29.29 0 0 0-.29-.29h-3.33ZM20.94 22.36H4.51a1.25 1.25 0 0 1 0-2.5h16.43a1.25 1.25 0 0 1 0 2.5ZM20.94 26.41H4.51a1.25 1.25 0 0 1 0-2.5h16.43a1.25 1.25 0 0 1 0 2.5Z" style="fill:#515962;stroke-width:0"/></svg>