<svg xmlns="http://www.w3.org/2000/svg" viewBox="0 0 44.5 44.5"><path d="M0 0h44.5v44.5H0z" style="fill:none;stroke-width:0"/><path d="M9 30.77c.69 0 1.25-.56 1.25-1.25v-7.51h10.59v7.51a1.25 1.25 0 0 0 2.5 0v-17.5a1.25 1.25 0 0 0-2.5 0v7.51H10.25v-7.51a1.25 1.25 0 0 0-2.5 0v17.52c0 .69.56 1.25 1.25 1.25ZM31.16 21.16c.27-.24.57-.42.9-.56.53-.22 1.1-.32 1.68-.29.43.02.84.11 1.24.27.59.23 1.25-.07 1.47-.65.23-.59-.07-1.25-.65-1.47-.62-.24-1.27-.38-1.93-.41-.92-.05-1.85.1-2.69.46-.57.23-1.08.56-1.54.96-.75.67-1.35 1.47-1.79 2.41-.79 1.79-1.14 3.76-1.01 5.67.06 1.8.75 3.54 1.96 4.9.8.86 1.88 1.41 3.02 1.54a4.91 4.91 0 0 0 4.94-2.53c.97-1.83.91-4.08-.15-5.86l-.06-.09a5.177 5.177 0 0 0-4.83-2.05c-.81.05-1.58.28-2.26.65.12-.44.28-.88.46-1.3.3-.63.71-1.18 1.23-1.65Zm.73 4.57s.07 0 .11-.01c1.02-.14 2.05.27 2.69 1.09.63 1.09.66 2.46.07 3.57-.51.94-1.56 1.48-2.65 1.34-.62-.07-1.2-.37-1.61-.81a5.48 5.48 0 0 1-1.35-3.15c.42-1.16 1.5-1.97 2.75-2.03Z" style="fill:#515962;stroke-width:0"/></svg>