<svg xmlns="http://www.w3.org/2000/svg" viewBox="0 0 44.5 44.5"><path d="M0 0h44.5v44.5H0z" style="fill:none;stroke-width:0"/><path d="M35.34 39.86H9.12c-.96 0-1.92-.26-2.76-.73a5.72 5.72 0 0 1-2.19-7.78L17.26 7.56a5.69 5.69 0 0 1 2.19-2.19c2.75-1.54 6.24-.56 7.78 2.18l13.09 23.81c.47.84.73 1.81.73 2.79 0 1.53-.59 2.96-1.67 4.04a5.664 5.664 0 0 1-4.04 1.67Zm-26.15-2.5h26.14c.86 0 1.66-.33 2.27-.94s.94-1.41.94-2.27c0-.55-.14-1.09-.41-1.57L25.04 8.77a3.21 3.21 0 0 0-4.37-1.22c-.51.29-.94.71-1.23 1.23L6.35 32.57c-.87 1.55-.32 3.52 1.23 4.38.49.27 1.03.39 1.6.41Z" style="fill:#515962;stroke-width:0"/><path d="M22.25 26.47c-.69 0-1.25-.56-1.25-1.25V16.3a1.25 1.25 0 0 1 2.5 0v8.92c0 .69-.56 1.25-1.25 1.25ZM22.25 33.91c-1.51 0-2.74-1.23-2.74-2.74 0-1.51 1.23-2.74 2.74-2.74 1.51 0 2.74 1.23 2.74 2.74 0 1.51-1.23 2.74-2.74 2.74Zm0-2.98c-.08 0-.14.04-.17.07-.03.03-.07.09-.07.17s.04.14.07.17.09.07.17.07c.08 0 .14-.04.17-.07.03-.03.07-.09.07-.17 0-.13-.11-.24-.24-.24Z" style="fill:#f7d779;stroke-width:0"/></svg>