<svg xmlns="http://www.w3.org/2000/svg" viewBox="0 0 44.5 44.5"><path d="M0 0h44.5v44.5H0z" style="fill:none;stroke-width:0"/><path d="M36.29 4.66H8.21c-2.27 0-4.12 1.85-4.12 4.12v28.08c0 2.27 1.85 4.11 4.12 4.11h28.08c2.27 0 4.12-1.85 4.12-4.11V8.78c0-2.27-1.85-4.12-4.12-4.12ZM8.21 7.16h28.08c.89 0 1.62.72 1.62 1.62v21.48l-5.19-5.19c-1.6-1.6-4.22-1.6-5.82 0l-1.71 1.71-4.58-4.58c-.78-.78-1.81-1.2-2.91-1.2s-2.13.43-2.91 1.21l-8.2 8.2V8.78c0-.89.72-1.62 1.62-1.62Zm28.08 31.31H8.21c-.89 0-1.62-.72-1.62-1.61v-2.92l9.96-9.96c.61-.61 1.67-.61 2.28 0l5.46 5.46c.49.49 1.28.49 1.77 0l2.59-2.59c.63-.63 1.65-.63 2.28 0l6.96 6.96v3.06c0 .89-.72 1.61-1.62 1.61Z" style="fill:#515962;stroke-width:0"/><path d="M27.12 18.63c2.27 0 4.12-1.85 4.12-4.12s-1.85-4.11-4.12-4.11-4.11 1.85-4.11 4.11 1.85 4.12 4.11 4.12Zm0-5.73c.89 0 1.62.72 1.62 1.61s-.72 1.62-1.62 1.62-1.61-.72-1.61-1.62.72-1.61 1.61-1.61Z" style="fill:#515962;stroke-width:0"/></svg>