<svg xmlns="http://www.w3.org/2000/svg" viewBox="0 0 44.5 44.5"><path d="M0 0h44.5v44.5H0z" style="fill:none;stroke-width:0"/><path d="M34.27 6.35H10.23a1.25 1.25 0 0 1 0-2.5h24.05a1.25 1.25 0 0 1 0 2.5ZM34.27 11.65H10.23a1.25 1.25 0 0 1 0-2.5h24.05a1.25 1.25 0 0 1 0 2.5ZM34.27 35.35H10.23a1.25 1.25 0 0 1 0-2.5h24.05a1.25 1.25 0 0 1 0 2.5ZM34.27 40.65H10.23a1.25 1.25 0 0 1 0-2.5h24.05a1.25 1.25 0 0 1 0 2.5ZM35.48 30.05H9.02c-2.61 0-4.73-2.12-4.73-4.73v-6.14c0-2.61 2.12-4.73 4.73-4.73h26.46c2.61 0 4.73 2.12 4.73 4.73v6.14c0 2.61-2.12 4.73-4.73 4.73ZM9.02 16.95c-1.23 0-2.23 1-2.23 2.23v6.14c0 1.23 1 2.23 2.23 2.23h26.46c1.23 0 2.23-1 2.23-2.23v-6.14c0-1.23-1-2.23-2.23-2.23H9.02Z" style="fill:#515962;stroke-width:0"/></svg>