<svg xmlns="http://www.w3.org/2000/svg" viewBox="0 0 44.5 44.5"><path d="M0 0h44.5v44.5H0z" style="fill:none;stroke-width:0"/><path d="M8 30.77c-.69 0-1.25-.56-1.25-1.25V12a1.25 1.25 0 0 1 2.5 0v17.52c0 .69-.56 1.25-1.25 1.25Z" style="fill:#515962;stroke-width:0"/><path d="M21.52 10.75c-.69 0-1.25.56-1.25 1.25v7.51H8.42a1.25 1.25 0 0 0 0 2.5h11.85v7.51a1.25 1.25 0 0 0 2.5 0V12c0-.69-.56-1.25-1.25-1.25ZM33.14 31.05a3.361 3.361 0 0 1-4.55-.44 1.14 1.14 0 1 0-1.71 1.51c1.1 1.25 2.66 1.9 4.23 1.9 1.2 0 2.42-.38 3.44-1.16.83-.65 1.43-1.53 1.74-2.54.42-1.33.29-2.75-.36-3.98s-1.74-2.15-3.1-2.57c-1.1-.31-2.25-.33-3.34-.08l.09-.68c.11-.88.23-1.79.32-2.46h4.71a1.14 1.14 0 1 0 0-2.28H28.9c-.56 0-1.04.41-1.13.96-.05.3-.26 1.96-.46 3.49-.15 1.18-.29 2.28-.34 2.62-.06.44.14.88.51 1.12.37.24.85.24 1.23 0 1.04-.65 2.31-.83 3.46-.5 1.55.48 2.42 2.14 1.94 3.69-.18.57-.52 1.06-.97 1.42Z" style="fill:#515962;stroke-width:0"/></svg>