<svg xmlns="http://www.w3.org/2000/svg" viewBox="0 0 44.5 44.5"><path d="M0 0h44.5v44.5H0z" style="fill:none;stroke-width:0"/><path d="M34.84 39.42h-2.81a1.25 1.25 0 0 1 0-2.5h2.81c.69-.02 1.32.5 1.36 1.19s-.45 1.27-1.14 1.31h-.21Zm-7.74 0h-2.96a1.25 1.25 0 0 1 0-2.5h2.96a1.25 1.25 0 0 1 0 2.5Zm-7.89 0h-2.96a1.25 1.25 0 0 1 0-2.5h2.96a1.25 1.25 0 0 1 0 2.5Zm-7.89 0H9.66c-.6 0-1.19-.12-1.75-.34-.64-.26-.94-.99-.68-1.63.26-.64.99-.94 1.63-.68.25.1.52.16.79.16h1.66a1.25 1.25 0 0 1 0 2.5Zm26.84-3.18h-.05c-.69-.03-1.23-.61-1.2-1.3v-2.91a1.25 1.25 0 0 1 2.5 0v3.01c-.03.67-.58 1.2-1.25 1.2ZM6.33 35.09c-.69 0-1.25-.56-1.25-1.25v-1.81a1.25 1.25 0 0 1 2.5 0v1.81c0 .69-.56 1.25-1.25 1.25ZM38.17 13.72c-.69 0-1.25-.56-1.25-1.25v-1.81a1.25 1.25 0 0 1 2.5 0v1.81c0 .69-.56 1.25-1.25 1.25Zm-31.83 0c-.69 0-1.25-.56-1.25-1.25V9.46c.03-.69.62-1.21 1.3-1.2.69.03 1.23.61 1.2 1.3v2.91c0 .69-.56 1.25-1.25 1.25Zm29.77-5.89c-.16 0-.32-.03-.48-.1-.25-.1-.51-.16-.79-.16h-1.66a1.25 1.25 0 0 1 0-2.5h1.66c.6 0 1.19.12 1.75.34.64.26.94 1 .68 1.63-.2.48-.67.77-1.16.77Zm-26.5-.25c-.67 0-1.26-.52-1.29-1.19-.03-.69.45-1.27 1.14-1.31h3.02a1.25 1.25 0 0 1 0 2.5H9.61Zm18.65 0H25.3a1.25 1.25 0 0 1 0-2.5h2.96a1.25 1.25 0 0 1 0 2.5Zm-7.89 0h-2.96a1.25 1.25 0 0 1 0-2.5h2.96a1.25 1.25 0 0 1 0 2.5ZM13.55 30.19c-.32 0-.64-.12-.88-.37l-6.69-6.69c-.23-.23-.37-.55-.37-.88s.13-.65.37-.88l6.69-6.69c.49-.49 1.28-.49 1.77 0s.49 1.28 0 1.77l-5.81 5.81 5.81 5.81c.49.49.49 1.28 0 1.77-.24.24-.56.37-.88.37ZM30.96 30.19c-.32 0-.64-.12-.88-.37a1.25 1.25 0 0 1 0-1.77l5.81-5.81-5.81-5.81a1.25 1.25 0 0 1 0-1.77 1.25 1.25 0 0 1 1.77 0l6.69 6.69c.49.49.49 1.28 0 1.77l-6.69 6.69c-.24.24-.56.37-.88.37ZM19.65 33.89c-.1 0-.2-.01-.3-.04-.67-.17-1.08-.85-.91-1.52l5.2-20.79c.17-.67.85-1.07 1.52-.91.67.17 1.08.85.91 1.52l-5.2 20.79c-.14.57-.65.95-1.21.95Z" style="fill:#515962;stroke-width:0"/></svg>