<svg xmlns="http://www.w3.org/2000/svg" viewBox="0 0 44.5 44.5"><path d="M0 0h44.5v44.5H0z" style="fill:none;stroke-width:0"/><path d="M22.1 10.75c-.69 0-1.25.56-1.25 1.25v7.51h-10.6V12a1.25 1.25 0 0 0-2.5 0v17.52a1.25 1.25 0 0 0 2.5 0v-7.51h10.6v7.51a1.25 1.25 0 0 0 2.5 0V12c0-.69-.56-1.25-1.25-1.25ZM28.96 31.73h-.01a1.14 1.14 0 0 0-.01 2.28h6.38v-2.28h-2.03v-12.2c0-.45-.27-.86-.69-1.04-.41-.18-.9-.1-1.23.2-.86.79-2.02 1.89-2.89 2.76-.45.44-.45 1.17 0 1.61.44.45 1.17.45 1.61 0 .28-.28.59-.58.91-.89v9.56h-2.04Z" style="fill:#515962;stroke-width:0"/></svg>