<svg xmlns="http://www.w3.org/2000/svg" viewBox="0 0 44.5 44.5"><path d="M0 0h44.5v44.5H0z" style="fill:none;stroke-width:0"/><path d="M35.34 39.86H9.16a5.727 5.727 0 0 1-5.5-4.17 5.67 5.67 0 0 1 .52-4.34L17.26 7.56c.52-.92 1.28-1.68 2.19-2.19 2.75-1.54 6.24-.56 7.78 2.18l13.09 23.81c.47.84.72 1.81.72 2.79 0 1.53-.59 2.96-1.67 4.04a5.664 5.664 0 0 1-4.04 1.67ZM22.25 7.14a3.203 3.203 0 0 0-2.8 1.64L6.37 32.57c-.43.76-.53 1.62-.3 2.45.23.83.77 1.51 1.52 1.93.48.27 1.02.41 1.57.41v1.25-1.25h26.18c.86 0 1.67-.33 2.27-.94a3.218 3.218 0 0 0 .53-3.84L25.05 8.77a3.208 3.208 0 0 0-2.8-1.63Z" style="fill:#515962;stroke-width:0"/><path d="M22.25 26.47c-.69 0-1.25-.56-1.25-1.25V16.3a1.25 1.25 0 0 1 2.5 0v8.92c0 .69-.56 1.25-1.25 1.25ZM22.25 33.91c-.73 0-1.42-.28-1.93-.8s-.8-1.2-.8-1.94c0-.73.28-1.42.8-1.94s1.2-.8 1.94-.8c1.51 0 2.74 1.23 2.74 2.74s-1.23 2.74-2.74 2.74Zm0-2.98c-.08 0-.14.04-.17.07-.03.03-.07.09-.07.17s.04.14.07.17c.03.03.09.07.17.07.13 0 .24-.11.24-.24s-.11-.24-.24-.24Z" style="fill:#f19aa3;stroke-width:0"/></svg>