<svg xmlns="http://www.w3.org/2000/svg" viewBox="0 0 44.5 44.5"><path d="M0 0h44.5v44.5H0z" style="fill:none;stroke-width:0"/><path d="M8 30.77c-.69 0-1.25-.56-1.25-1.25V12a1.25 1.25 0 0 1 2.5 0v17.52c0 .69-.56 1.25-1.25 1.25Z" style="fill:#515962;stroke-width:0"/><path d="M8 22.01h11.85v7.51a1.25 1.25 0 0 0 2.5 0V12a1.25 1.25 0 0 0-2.5 0v7.51H8a1.25 1.25 0 0 0 0 2.5ZM30.97 34.01c.38 0 .75-.04 1.12-.11 1.68-.34 2.98-1.39 3.68-3.01.67-1.79.45-3.51-.62-4.84-.7-.88-1.73-1.49-2.89-1.77 1.42-1.65 3.21-3.72 3.55-4.14.28-.34.33-.81.14-1.21-.19-.4-.59-.65-1.03-.65h-7.21a1.14 1.14 0 1 0 0 2.28h4.74c-.97 1.13-2.25 2.61-3.44 3.98a1.137 1.137 0 0 0 1.02 1.87c1.37-.2 2.65.21 3.34 1.06.55.68.64 1.59.28 2.56-.48 1.11-1.36 1.49-2.01 1.62-1.23.25-2.65-.19-3.6-1.11-.45-.44-1.18-.43-1.61.03-.44.45-.43 1.18.03 1.61A6.607 6.607 0 0 0 30.97 34Z" style="fill:#515962;stroke-width:0"/></svg>