<svg xmlns="http://www.w3.org/2000/svg" viewBox="0 0 44.5 44.5"><path d="M0 0h44.5v44.5H0z" style="fill:none;stroke-width:0"/><path d="M9 30.77c.69 0 1.25-.56 1.25-1.25v-7.51h10.6v7.51a1.25 1.25 0 0 0 2.5 0V12a1.25 1.25 0 0 0-2.5 0v7.51h-10.6V12a1.25 1.25 0 0 0-2.5 0v17.52c0 .69.56 1.25 1.25 1.25ZM28.26 34.02h7.73a1.14 1.14 0 1 0 0-2.28H29.5c.1-.36.28-.69.51-.97.65-.74 1.4-1.38 2.28-1.93l.42-.29c.64-.44 1.31-.9 1.92-1.42.7-.57 1.28-1.26 1.73-2.08.24-.47.39-.96.46-1.47.06-.42.07-.85.03-1.26-.08-.96-.48-1.87-1.14-2.59-.83-.88-1.96-1.4-3.11-1.46-1.42-.15-2.86.29-3.97 1.21-.37.32-.72.68-1.03 1.06-.4.49-.33 1.21.16 1.6.49.4 1.21.33 1.61-.16.23-.28.48-.54.74-.76.62-.52 1.44-.77 2.31-.68.62.03 1.2.3 1.62.75.31.33.5.77.54 1.24.02.24.02.48-.02.73-.04.26-.12.51-.22.72-.29.53-.68.99-1.17 1.39-.54.46-1.13.86-1.75 1.29l-.38.27a12.07 12.07 0 0 0-2.75 2.35c-.75.88-1.16 2-1.17 3.16v.44c0 .63.51 1.14 1.14 1.14Z" style="fill:#515962;stroke-width:0"/></svg>