<svg xmlns="http://www.w3.org/2000/svg" viewBox="0 0 44.5 44.5"><path d="M0 0h44.5v44.5H0z" style="fill:none;stroke-width:0"/><path d="M41.51 17.26 39.26 15c-.98-.98-2.68-.98-3.66 0l-3.12 3.12c-.13-.04-.26-.08-.4-.08-.69 0-1.25.56-1.25 1.25v.48l-2.99 2.99h-.66c-.69 0-1.25.56-1.25 1.25 0 .19.05.37.13.53l-1.1 1.1c-.15.15-.25.32-.31.52l-1.75 5.76c-.13.44-.01.92.31 1.25a1.251 1.251 0 0 0 1.24.32l6.16-1.88s.04-.02.07-.03c.03-.01.06-.02.08-.04.14-.06.26-.14.37-.25l10.38-10.38a2.59 2.59 0 0 0 0-3.66ZM26.55 28.48l1.34 1.34-1.93.59.59-1.93Zm13.19-9.33-9.49 9.49-2.38-2.38 5.08-5.08 4.41-4.41c.03-.03.1-.03.12 0l2.25 2.26s.03.09 0 .13Z" style="fill:#515962;stroke-width:0"/><path d="M37.25 28.78c-.69 0-1.25.56-1.25 1.25v3.09a3.06 3.06 0 0 1-3.06 3.06H11.21a3.06 3.06 0 0 1-3.06-3.06V11.38a3.06 3.06 0 0 1 3.06-3.06h21.73c1.23 0 2.34.73 2.82 1.87.27.64 1 .93 1.64.66.64-.27.93-1 .66-1.64a5.544 5.544 0 0 0-5.12-3.39H11.21a5.56 5.56 0 0 0-5.56 5.56v21.73c0 3.06 2.49 5.56 5.56 5.56h21.73a5.56 5.56 0 0 0 5.56-5.56v-3.09c0-.69-.56-1.25-1.25-1.25Z" style="fill:#515962;stroke-width:0"/><path d="M15.44 25.26h.19a1.25 1.25 0 0 0 0-2.5h-.19c-.19 0-.36-.09-.47-.24a1.248 1.248 0 0 0-2.03 1.45c.58.8 1.51 1.29 2.5 1.29ZM30.26 12.62h-.29a1.25 1.25 0 0 0 0 2.5h.29c.17 0 .34.08.45.22.25.31.61.47.98.47.27 0 .55-.09.78-.27.54-.43.63-1.22.2-1.76a3.047 3.047 0 0 0-2.4-1.16ZM26.41 13.87c0-.69-.56-1.25-1.25-1.25h-1.92a1.25 1.25 0 0 0 0 2.5h1.92c.69 0 1.25-.56 1.25-1.25ZM20.44 25.26h1.92a1.25 1.25 0 0 0 0-2.5h-1.92a1.25 1.25 0 0 0 0 2.5ZM19.67 13.87c0-.69-.56-1.25-1.25-1.25H16.5a1.25 1.25 0 0 0 0 2.5h1.92c.69 0 1.25-.56 1.25-1.25ZM14.87 18.51v-1.92a1.25 1.25 0 0 0-2.5 0v1.92a1.25 1.25 0 0 0 2.5 0Z" style="fill:#515962;stroke-width:0"/></svg>