<svg xmlns="http://www.w3.org/2000/svg" viewBox="0 0 44.5 44.5"><path d="M0 0h44.5v44.5H0z" style="fill:none;stroke-width:0"/><path d="M25.54 16.5h-6.59c-1.81 0-3.28-1.47-3.28-3.28V6.63c0-1.81 1.47-3.28 3.28-3.28h6.59c1.81 0 3.28 1.47 3.28 3.28v6.59c0 1.81-1.47 3.28-3.28 3.28ZM18.95 5.86c-.43 0-.78.35-.78.78v6.59c0 .43.35.78.78.78h6.59c.43 0 .78-.35.78-.78V6.64c0-.43-.35-.78-.78-.78h-6.59ZM31.86 25.37H12.64c-1.81 0-3.28-1.47-3.28-3.28v-.76c0-1.81 1.47-3.28 3.28-3.28h19.22c1.81 0 3.28 1.47 3.28 3.28v.76c0 1.81-1.47 3.28-3.28 3.28Zm-19.22-4.81c-.43 0-.78.35-.78.78v.76c0 .43.35.78.78.78h19.22c.43 0 .78-.35.78-.78v-.76c0-.43-.35-.78-.78-.78H12.64ZM18.7 41.15H8.12c-1.68 0-3.06-1.37-3.06-3.05s1.37-3.06 3.06-3.06H18.7c1.68 0 3.06 1.37 3.06 3.06s-1.37 3.05-3.06 3.05ZM8.12 37.54c-.31 0-.56.25-.56.56s.25.55.56.55H18.7c.31 0 .56-.25.56-.55s-.25-.56-.56-.56H8.12ZM36.38 41.15H25.8c-1.68 0-3.06-1.37-3.06-3.05s1.37-3.06 3.06-3.06h10.58c1.68 0 3.05 1.37 3.05 3.06s-1.37 3.05-3.05 3.05ZM25.8 37.54c-.31 0-.56.25-.56.56s.25.55.56.55h10.58c.31 0 .55-.25.55-.55s-.25-.56-.55-.56H25.8ZM38.18 29.42H6.32a1.25 1.25 0 0 1 0-2.5h31.87a1.25 1.25 0 0 1 0 2.5ZM38.18 33.48H6.32a1.25 1.25 0 0 1 0-2.5h31.87a1.25 1.25 0 0 1 0 2.5Z" style="fill:#515962;stroke-width:0"/></svg>