<svg xmlns="http://www.w3.org/2000/svg" viewBox="0 0 44.5 44.5"><path d="M0 0h44.5v44.5H0z" style="fill:none;stroke-width:0"/><path d="M41.51 17.26 39.26 15c-.98-.98-2.68-.98-3.66 0l-2.27 2.27v-1.59c0-1.69-1.38-3.07-3.07-3.07H15.44c-1.69 0-3.07 1.38-3.07 3.07v6.51c0 1.69 1.38 3.07 3.07 3.07h9.9l-.38.38c-.15.15-.25.32-.31.52l-1.75 5.76c-.13.44-.01.92.31 1.25a1.251 1.251 0 0 0 1.24.32l6.16-1.88s.04-.02.07-.03c.03-.01.06-.02.08-.04.14-.06.26-.14.37-.25l10.38-10.38a2.59 2.59 0 0 0 0-3.66Zm-26.08 5.5a.57.57 0 0 1-.57-.57v-6.51c0-.31.25-.57.57-.57h14.82c.31 0 .57.25.57.57v4.09l-2.99 2.99h-12.4Zm11.12 5.72 1.34 1.34-1.93.59.59-1.93Zm13.19-9.33-9.49 9.49-2.38-2.38 1.37-1.36 8.13-8.13s.1-.03.12 0l2.25 2.26s.03.09 0 .13ZM35.76 10.19a1.245 1.245 0 0 0 1.64.66c.64-.27.93-1 .66-1.64-.25-.59-.59-1.12-1.03-1.6a1.26 1.26 0 0 0-1.77-.08 1.26 1.26 0 0 0-.08 1.77c.24.26.43.56.57.88ZM8.15 30.98a1.25 1.25 0 0 0-2.5 0v2.14c0 .34.03.68.09 1.01.11.6.64 1.02 1.23 1.02.08 0 .15 0 .23-.02a1.25 1.25 0 0 0 1-1.46c-.03-.18-.05-.37-.05-.55v-2.14ZM6.9 27.36c.69 0 1.25-.56 1.25-1.25v-2.92a1.25 1.25 0 0 0-2.5 0v2.92c0 .69.56 1.25 1.25 1.25ZM6.9 19.56c.69 0 1.25-.56 1.25-1.25v-2.92a1.25 1.25 0 0 0-2.5 0v2.92c0 .69.56 1.25 1.25 1.25ZM20.91 8.32h2.92a1.25 1.25 0 0 0 0-2.5h-2.92a1.25 1.25 0 0 0 0 2.5ZM13.11 8.32h2.92a1.25 1.25 0 0 0 0-2.5h-2.92a1.25 1.25 0 0 0 0 2.5ZM28.71 8.32h2.92a1.25 1.25 0 0 0 0-2.5h-2.92a1.25 1.25 0 0 0 0 2.5ZM9.27 9.02c.53-.44.61-1.23.17-1.76-.44-.53-1.23-.61-1.76-.17-.98.81-1.66 1.93-1.91 3.17-.14.68.3 1.34.97 1.47.08.02.17.03.25.03.58 0 1.1-.41 1.22-1 .14-.68.51-1.3 1.05-1.74ZM28.62 36.18H25.7a1.25 1.25 0 0 0 0 2.5h2.92a1.25 1.25 0 0 0 0-2.5ZM35.15 35.23c-.48.5-1.13.83-1.82.92a1.25 1.25 0 0 0 .16 2.49h.16c1.25-.16 2.43-.75 3.31-1.66.48-.5.46-1.29-.04-1.77a1.25 1.25 0 0 0-1.77.04ZM13.03 36.18h-1.82c-.26 0-.52-.03-.77-.1-.67-.17-1.35.22-1.53.89-.18.67.22 1.35.89 1.53.46.12.93.18 1.41.18h1.82a1.25 1.25 0 0 0 0-2.5ZM20.82 36.18H17.9a1.25 1.25 0 0 0 0 2.5h2.92a1.25 1.25 0 0 0 0-2.5ZM37.25 28.78c-.69 0-1.25.56-1.25 1.25v1.48a1.25 1.25 0 0 0 2.5 0v-1.48c0-.69-.56-1.25-1.25-1.25Z" style="fill:#515962;stroke-width:0"/></svg>