<svg xmlns="http://www.w3.org/2000/svg" viewBox="0 0 44.5 44.5"><path d="M0 0h44.5v44.5H0z" style="fill:none;stroke-width:0"/><path d="M9 30.77c.69 0 1.25-.56 1.25-1.25v-7.51h10.6v7.51a1.25 1.25 0 0 0 2.5 0V12a1.25 1.25 0 0 0-2.5 0v7.51h-10.6V12a1.25 1.25 0 0 0-2.5 0v17.52c0 .69.56 1.25 1.25 1.25ZM27.43 29.97h6.14v2.9a1.14 1.14 0 1 0 2.28 0v-2.9h.99a1.14 1.14 0 1 0 0-2.28h-.99v-8.37a1.135 1.135 0 0 0-2.04-.69l-7.28 9.51a1.141 1.141 0 0 0 .9 1.84Zm6.14-7.29v5.01h-3.83l3.83-5.01Z" style="fill:#515962;stroke-width:0"/></svg>